<svg id="Layer_1" data-name="Layer 1" xmlns="http://www.w3.org/2000/svg" xmlns:xlink="http://www.w3.org/1999/xlink" viewBox="0 0 286.56 73.14"><defs><style>.cls-1{fill:none;}.cls-2{clip-path:url(#clip-path);}.cls-3{fill:#ec2227;}.cls-4{fill:#fff;}</style><clipPath id="clip-path" transform="translate(-1.39 -2.49)"><rect class="cls-1" x="-165.25" y="-198.99" width="393.47" height="556.48"/></clipPath></defs><title>لگو برای وبسایت</title><g class="cls-2"><path class="cls-3" d="M68.91,8.35a.6.6,0,0,0-.27-.17c-2.31-.71-19-5.69-33.14-5.69C22.88,2.49,5.23,7.15,1.94,8.05a.83.83,0,0,0-.45.23.61.61,0,0,0-.1.34c.21,44.44,33.72,67,33.72,67s33.79-21.9,33.79-67V8.38" transform="translate(-1.39 -2.49)"/><path class="cls-4" d="M53.61,15.47C47.36,13,36.79,30.93,37.1,40.81c.29,9,10.26,7.61,13.83-1.42.63-1.61,3-9-1.92-9.2-.57,0-.38.39.22.49a2.1,2.1,0,0,1,1.5,2.06c.29,6.54-9.22,17.07-10.46,9.94-1-5.42,6.29-28.34,12.88-26.26,2.91.92-.55,6.14-1,6.82-1,1.5-.11,2.64,1.22,1,.38-.47,3.86-7.31.24-8.76m-12,3.08c0-1.39-.77-3.2-2.39-3.2-4.15,0-8.06,8.22-10.91,15.7-1.83,0-4.88-.69-6.3-2.1-1.11-1.1-1.38-.69-.84,0,1.43,1.83,4.73,2.72,6.85,2.72h.06c-2,5.37-3.43,10.19-4,11.14-5-2.9-9-1.45-8.92,1.82s5.16,4.1,8.64,1.11c13,8.1,22.28,11.83,27.68-.63.39-.93.74-2.71-.55-.76-4.28,6.49-11.25,7.9-24.92-.67,2.89-3.25,4.65-8.1,6.22-12.73,5-2.14,9.24-7,9.39-12.4M22.5,45c-1.73,2-6.67,1.92-6.49-.41.18-2.48,4.26-1.16,6.49.41M40.23,17.26c.07,2.29-2.95,8.69-7.62,12.47,1-3.15,3.79-13.64,6.63-13.64a1.05,1.05,0,0,1,1,1.17" transform="translate(-1.39 -2.49)"/></g><path class="cls-4" d="M288,70.74a4.19,4.19,0,0,0-.87-2.66c-.06-.07-.11-.06-.17,0l-.71,1a3.42,3.42,0,0,1,.7,1.15,3.43,3.43,0,0,1-.95.09l-.85,0-.85,0H250.3a2.63,2.63,0,0,0-.61-1.65c-.34-.43-.64-.65-.89-.65s-.75.33-1.07,1a3.35,3.35,0,0,0-.43,1.48c0,.7.73,1.1,2.19,1.19a2.49,2.49,0,0,1-1,1.13,2.89,2.89,0,0,1-1.54.43,2.92,2.92,0,0,1-1.48-.36.59.59,0,0,0-.22-.08s-.06,0-.06,0a.36.36,0,0,0,.09.18,4.94,4.94,0,0,0,1,1,2.38,2.38,0,0,0,1.33.48,2.35,2.35,0,0,0,1.93-1.18,4.14,4.14,0,0,0,.71-1.66h34c.19,0,.47,0,.84,0l.84,0c1.23,0,1.89-.09,2-.28a4.26,4.26,0,0,0,0-.69m-38.52-.4A2.74,2.74,0,0,1,248,70c.16-.35.33-.53.52-.53s.32.12.53.35a3.12,3.12,0,0,1,.38.54m-6.58,0v-.23a3.55,3.55,0,0,0-.31-1.77l-.84.89a2.3,2.3,0,0,1,.33,1,1.06,1.06,0,0,1-.57.11,2.12,2.12,0,0,1-1.18-.29,2.58,2.58,0,0,0,.27-1.1,1.06,1.06,0,0,0-.08-.45l-.9.9a.84.84,0,0,1,.09.37.86.86,0,0,1-.1.37,4.6,4.6,0,0,1-1.23.1,5.84,5.84,0,0,1-1.38-.1,2.93,2.93,0,0,0,.27-1.14,1.77,1.77,0,0,0-.09-.56l-.87.9a1.34,1.34,0,0,1,.09.46,1,1,0,0,1,0,.31,2.45,2.45,0,0,1-1,.13H199.85c-.27,0-.46-.06-.53-.16a4,4,0,0,1-.09-.58l-.16-3.94c0-.09,0-.13-.06-.13l-.12.07-.88.74.31,4.07a1.87,1.87,0,0,0,.21.85.89.89,0,0,0,.81.39H235a2.4,2.4,0,0,0,1.24-.27,4.61,4.61,0,0,0,1.92.27,3.45,3.45,0,0,0,1-.12,1.73,1.73,0,0,0,.58-.34,4.37,4.37,0,0,0,.9.31,5.37,5.37,0,0,0,1.21.16c.58,0,.88-.1.89-.29Zm-1-2.52.53-.77-1.13-.58-.41.6-1-.55-.55.76,1.21.6.42-.58Zm-1.18-1.19.51-.78-1.07-.55-.53.74Zm-47,4.77c.18-.15.25-.54.2-1.19q0-.36-1.23-1.2a11.78,11.78,0,0,0-1.63-1,10.54,10.54,0,0,1,1.24-.47l1.29-.39a3,3,0,0,0,.23-.87s-.06,0-.15,0a15,15,0,0,0-2.15.71,5.7,5.7,0,0,0-1.65.83.55.55,0,0,0-.1.27,1.12,1.12,0,0,0,0,.22s0,0,0,.06a2.17,2.17,0,0,0,.71.68l.15-.2a11.92,11.92,0,0,1,2.14,1.46,21.42,21.42,0,0,1-3.44.19c-.65,0-1.05,0-1.18,0-.47-.09-.71-.31-.71-.67,0,0,0-.15,0-.29s0-.23-.07-.23-.12.06-.17.17a2.1,2.1,0,0,0-.28,1c0,.89.79,1.33,2.36,1.33.84,0,1.75,0,2.74-.13a5.53,5.53,0,0,0,1.7-.3m-9.95-7.33a.2.2,0,0,0,0-.07s0-.06,0-.06a.14.14,0,0,0-.08.05,1,1,0,0,1-.72.26,3.13,3.13,0,0,1-.71-.12,3.55,3.55,0,0,0-.7-.11.87.87,0,0,0-.65.28.92.92,0,0,0-.22.41.09.09,0,0,0,0,.11.11.11,0,0,0,.1,0,.83.83,0,0,1,.52-.25,4.41,4.41,0,0,1,.87.11,5.34,5.34,0,0,0,.87.11c.32,0,.56-.23.73-.69m-6.27,7.26a3.22,3.22,0,0,0,.28-1.66,3.28,3.28,0,0,0-.53-1.89c-.31-.47-.63-.71-1-.71s-.61.27-1,.8a2.27,2.27,0,0,0-.62,1.15c0,.26.2.51.58.74a8.6,8.6,0,0,0,1.36.61c-.3,0-.77,0-1.38,0s-18.48,0-25.84-.05h-9.14c-.27,0-.46-.06-.53-.16a4,4,0,0,1-.09-.58l-.16-3.94c0-.09,0-.13-.06-.13l-.12.07-.87.74.3,4.07a2,2,0,0,0,.21.85.9.9,0,0,0,.81.39H174.1l.85,0,.85,0c.95,0,1.49-.1,1.64-.31m-.35-1.86a17.87,17.87,0,0,1-1.94-.91,1.23,1.23,0,0,1,.9-.61c.19,0,.39.18.61.54a4.67,4.67,0,0,1,.43,1m0-2.65.52-.7-1.08-.61-.51.7Zm-1.6,0,.53-.69-1.08-.61-.51.69Zm-41,4.51a3.63,3.63,0,0,0,0-.69,4.14,4.14,0,0,0-.88-2.66c-.06-.07-.11-.06-.17,0l-.71,1a3.46,3.46,0,0,1,.71,1.15,3.56,3.56,0,0,1-1,.09l-.85,0-.85,0H96.78c-.28,0-.47-.06-.54-.16a4,4,0,0,1-.09-.58L96,65.64c0-.09,0-.13-.06-.13l-.12.07-.87.74.3,4.07a2,2,0,0,0,.21.85.9.9,0,0,0,.81.39h34.62c.18,0,.46,0,.84,0l.84,0c1.22,0,1.88-.09,2-.28m-43.67,1.7a3,3,0,0,0,.55-2,3.34,3.34,0,0,0-.66-2.2s-.08,0-.12,0l-.69,1a3.21,3.21,0,0,1,.72,2.15,5.41,5.41,0,0,1-2.79.77,1.39,1.39,0,0,1-1-.37,1.3,1.3,0,0,1-.37-1,4.24,4.24,0,0,1,.61-1.92.3.3,0,0,0,0-.13s0,0,0,0a.19.19,0,0,0-.15.08,3.85,3.85,0,0,0-.64,1.17A3.52,3.52,0,0,0,86,72a2.58,2.58,0,0,0,.4,1.5,1.64,1.64,0,0,0,1.44.69,5.57,5.57,0,0,0,1.6-.33,3.31,3.31,0,0,0,1.41-.71m-1.79-5,.44-.95-1.19-.41-.42.93ZM131.65,73l-.69.77.88.7.58-.62.78.62.73-.77L133,73l-.56.61Zm51-7.64-.9,1c0,.42.06,1.1.15,2S182,70,182,70.47c0,.17,0,.51,0,1,0,.11,0,.16,0,.16s.06,0,.13-.09a3.33,3.33,0,0,0,.55-.63,1.52,1.52,0,0,0,.33-.72l-.25-4.77c0-.09,0-.14,0-.14s0,0-.09.07M182,71.65h0Zm102.87.89-.53.77,1.12.58.41-.59,1.06.54.55-.75-1.21-.61-.42.58Zm1.18,1.2-.51.77,1.06.56.53-.74Z" transform="translate(-1.39 -2.49)"/><path class="cls-4" d="M288,28.88,286.49,6.13c0-.54-.11-.65-.12-.66a1.64,1.64,0,0,0-.39.36l-5.31,5.69c0,.82.2,3.25.41,6.3.47,6.93,1.11,16.42,1,18.39a2.16,2.16,0,0,0,0,.73,3.47,3.47,0,0,0,.62-.45,19.82,19.82,0,0,0,3.27-3.6c1.32-1.8,2-3.15,1.92-4m-11.6,14.38c-.11-7.86-.26-13.31-.46-16.2L274.46,6.47a2.52,2.52,0,0,0-.16-1,6.1,6.1,0,0,0-.84.62l-5,4.3,2.64,31.91c.14,1.37-4.35,4.53-11.57,4.53a9.63,9.63,0,0,1-6.22-1.94,6.65,6.65,0,0,1-2.51-5.47,21.46,21.46,0,0,1,1.1-6.7,4.87,4.87,0,0,0,.29-1.42c0-.19,0-.3-.07-.3s-.49.16-1.32,1.61a23.48,23.48,0,0,0-3.23,11.82,8.83,8.83,0,0,0,3.26,7.15,12.31,12.31,0,0,0,8.13,2.65,19.67,19.67,0,0,0,13.28-4.64c2.79-2.41,4.19-4.54,4.16-6.34M238.22,29.63c0-.39,0-.84,0-1.34,0-4.89-.58-8.37-1.72-10.34L231.71,23a13.14,13.14,0,0,1,1.95,6.13v.09l-.06.05a6,6,0,0,1-3.49.7A12.51,12.51,0,0,1,223,28.21l-.12-.08.06-.12a15.13,15.13,0,0,0,1.62-6.46,6.83,6.83,0,0,0-.4-2.43L219,24.26a5.08,5.08,0,0,1,.5,2.15,4.85,4.85,0,0,1-.62,2.31l0,.06-.06,0a27.67,27.67,0,0,1-5,.3,30,30,0,0,1-5.11-.3l-.18-.05.07-.17a17.54,17.54,0,0,0,1.58-6.75,10,10,0,0,0-.44-3l-4.92,5.09a8.71,8.71,0,0,1,.47,2.69,6.1,6.1,0,0,1-.3,1.93l0,.06-.05,0c-.94.52-2.94.77-6.12.77h-4.43c-4.75,0-12.91,0-14.29.23a14,14,0,0,0-5.87,1.95c-.88.68-1.87,2.25-2.94,4.66a14.79,14.79,0,0,0-1.48,4.25c0,.5.66,1.35,3.81,2.54l6.31,2.3.38.14-.36.16c-2.34,1.08-6.4,1.62-12.06,1.62a22.39,22.39,0,0,1-8.1-1.34c-3.11-1.21-4.69-3.1-4.69-5.6s1.25-5.45,3.72-8.87a1.19,1.19,0,0,0,.3-.63c0-.06,0-.11-.13-.11a1.34,1.34,0,0,0-.85.52c-3.72,4-5.6,8.29-5.6,12.82a9.36,9.36,0,0,0,3.33,7.63c2.12,1.72,5,2.59,8.7,2.59a42.14,42.14,0,0,0,11.15-1.59c4.61-1.27,7.78-3,9.41-5a8.69,8.69,0,0,0,.87-2.74,16.84,16.84,0,0,0,.43-3c0-.23-1.13-1.15-10.66-4.46l-.4-.14.4-.17a12.77,12.77,0,0,1,4.54-.64c.77,0,14.12.37,14.69.39h2.26a14.59,14.59,0,0,0,7.32-1.55l.08,0,.08,0c1.27.66,5.56,1.06,9,1.06a13.55,13.55,0,0,0,2.95-.2,10,10,0,0,0,3.4-2l.08-.07.1,0A24.33,24.33,0,0,0,225.53,36a30.82,30.82,0,0,0,7.17.93c3.34,0,5.13-.54,5.19-1.57Zm-92-.29c0-.72-.72-2.79-2.12-6.16-1-2.37-1.6-3.77-1.82-4.15-.91-1.58-1.95-2.39-3.08-2.39-2.54,0-4.89,1.48-7,4.41-.33.46-1.44,2.51-3.31,6.11a4,4,0,0,1-3.32,2.13h-8.53a15.71,15.71,0,0,0-3-6.15c-.05-.07-.13-.15-.21-.15s-.16.08-.26.22l-4,6.15a19.53,19.53,0,0,1,4.25,12.85v.09l-.08.05A32.28,32.28,0,0,1,96.93,47a8.6,8.6,0,0,1-6.31-2.25,8.12,8.12,0,0,1-2.26-6c0-3.11,1.23-7,3.64-11.52a1.62,1.62,0,0,0,.25-.71c0-.13,0-.17-.17-.17a1.06,1.06,0,0,0-.74.46,23.85,23.85,0,0,0-3.82,6.93A22.11,22.11,0,0,0,86,41.36a15.15,15.15,0,0,0,2.39,8.82c1.87,2.7,4.69,4.06,8.41,4.06a33,33,0,0,0,9.51-2c4.3-1.4,7-2.82,8.34-4.18,2.5-2.47,3.14-7.47,3.24-11.35h3.19a11.19,11.19,0,0,0,4.2-.52,7.82,7.82,0,0,0,2.47-2.87l.1-.18.15.14a12.28,12.28,0,0,0,2.78,2.15c1.72.85,4.46,1.28,8.14,1.28a10.66,10.66,0,0,0,3.92-.5c2.23-1,3.36-3.34,3.36-6.92m-4.62.72h-.22c-5.83-.39-9-1.27-9.7-2.69l0-.09.06-.07a12.8,12.8,0,0,1,2.22-2.58,4.57,4.57,0,0,1,2.86-.91c2.33,0,3.94,2.07,4.77,6.14ZM104,24.37l2.34-5.3-6.65-2.39-2.39,5.26Z" transform="translate(-1.39 -2.49)"/></svg>