<?xml version="1.0" encoding="UTF-8" standalone="no" ?>
<!DOCTYPE svg PUBLIC "-//W3C//DTD SVG 1.1//EN" "http://www.w3.org/Graphics/SVG/1.1/DTD/svg11.dtd">
<svg xmlns="http://www.w3.org/2000/svg" xmlns:xlink="http://www.w3.org/1999/xlink" version="1.1" width="1080" height="1080" viewBox="0 0 1080 1080" xml:space="preserve">
<desc>Created with Fabric.js 5.2.4</desc>
<defs>
</defs>
<g transform="matrix(1 0 0 1 540 540)" id="c0143422-cc8a-451f-ab58-cc508a185a42"  >
<rect style="stroke: none; stroke-width: 1; stroke-dasharray: none; stroke-linecap: butt; stroke-dashoffset: 0; stroke-linejoin: miter; stroke-miterlimit: 4; fill: rgb(255,255,255); fill-rule: nonzero; opacity: 1; visibility: hidden;" vector-effect="non-scaling-stroke"  x="-540" y="-540" rx="0" ry="0" width="1080" height="1080" />
</g>
<g transform="matrix(1 0 0 1 540 540)" id="5eb2bd76-f5d6-4e70-8a5a-114e26d39922"  >
</g>
<g transform="matrix(6.59 0 0 6.59 540 540)"  >
<g style=""   >
		<g transform="matrix(1 0 0 1 -58 0.98)" clip-path="url(#CLIPPATH_3)"  >
<clipPath id="CLIPPATH_3" >
	<rect transform="matrix(1 0 0 1 58 -0.98)" id="clip1_24_4230" clip-path="url(#undefined)" x="-81.5" y="-21.77055" rx="0" ry="0" width="163" height="43.5411" />
</clipPath>
<path style="stroke: none; stroke-width: 1; stroke-dasharray: none; stroke-linecap: butt; stroke-dashoffset: 0; stroke-linejoin: miter; stroke-miterlimit: 4; fill: rgb(235,32,39); fill-rule: nonzero; opacity: 1;" vector-effect="non-scaling-stroke"  transform=" translate(-24, -24.98)" d="M 41.9247 8.67688 C 41.9247 8.67688 41.8745 8.61547 41.7852 8.58198 C 40.5627 8.20797 31.6702 5.56201 24.1845 5.56201 C 17.4859 5.56201 8.11339 8.03492 6.36059 8.51499 C 6.17079 8.56523 6.12613 8.6378 6.12613 8.6378 C 6.08148 8.71037 6.07031 8.74386 6.07031 8.81643 C 6.18196 32.4235 23.978 44.4029 23.978 44.4029 C 23.978 44.4029 41.9247 32.7752 41.9247 8.81643 L 41.9247 8.69362" stroke-linecap="round" />
</g>
		<g transform="matrix(1 0 0 1 -57.99 -1.59)" clip-path="url(#CLIPPATH_4)"  >
<clipPath id="CLIPPATH_4" >
	<rect transform="matrix(1 0 0 1 57.99 1.59)" id="clip1_24_4230" clip-path="url(#undefined)" x="-81.5" y="-21.77055" rx="0" ry="0" width="163" height="43.5411" />
</clipPath>
<path style="stroke: none; stroke-width: 1; stroke-dasharray: none; stroke-linecap: butt; stroke-dashoffset: 0; stroke-linejoin: miter; stroke-miterlimit: 4; fill: rgb(255,255,255); fill-rule: nonzero; opacity: 1;" vector-effect="non-scaling-stroke"  transform=" translate(-24.01, -22.41)" d="M 33.7978 12.4561 C 30.482 11.1275 24.8719 20.6675 25.0338 25.9147 C 25.1845 30.7098 30.482 29.9562 32.3744 25.1611 C 32.7093 24.3071 33.9486 20.3884 31.3584 20.2767 C 31.057 20.2656 31.1575 20.4833 31.4757 20.5335 C 31.8385 20.5949 32.2404 21.008 32.2683 21.6276 C 32.4246 25.0997 27.3672 30.6987 26.7085 26.9084 C 26.2061 24.0335 30.0466 11.8588 33.5522 12.9641 C 35.0985 13.4497 33.262 16.2241 33.0219 16.5813 C 32.4916 17.3796 32.9661 17.9824 33.6695 17.1116 C 33.876 16.8548 35.7237 13.2264 33.7978 12.4561 Z M 27.4174 14.0917 C 27.4341 13.3548 27.0099 12.3947 26.1447 12.3947 C 23.9397 12.3947 21.8687 16.7655 20.3503 20.7345 C 19.3735 20.7568 17.7602 20.366 17.001 19.618 C 16.4093 19.0375 16.2698 19.2552 16.5545 19.618 C 17.3136 20.5893 19.072 21.0694 20.194 21.0694 L 20.222 21.0694 C 19.1502 23.9219 18.4022 26.4785 18.0951 26.9809 C 15.438 25.4403 13.3224 26.2162 13.3559 27.9522 C 13.3838 29.6436 16.1023 30.1237 17.9444 28.5439 C 24.8384 32.8422 29.7787 34.8239 32.6479 28.2034 C 32.8545 27.7122 33.0387 26.7632 32.3576 27.8015 C 30.0801 31.2513 26.3791 31.9937 19.1223 27.4443 C 20.6574 25.7194 21.5896 23.146 22.4269 20.6842 C 25.112 19.5399 27.3393 16.9832 27.4174 14.0917 Z M 17.2801 28.142 C 16.3591 29.2138 13.741 29.158 13.8303 27.9187 C 13.9252 26.6069 16.0967 27.3103 17.2801 28.142 Z M 26.6973 13.405 C 26.7364 14.6275 25.1287 18.0215 22.6502 20.0311 C 23.1917 18.362 24.6654 12.7854 26.1726 12.7854 C 26.3791 12.7854 26.6806 12.9417 26.6973 13.405 Z" stroke-linecap="round" />
</g>
		<g transform="matrix(1 0 0 1 22.63 17.17)" clip-path="url(#CLIPPATH_5)"  >
<clipPath id="CLIPPATH_5" >
	<rect transform="matrix(1 0 0 1 -22.63 -17.17)" id="clip1_24_4230" clip-path="url(#undefined)" x="-81.5" y="-21.77055" rx="0" ry="0" width="163" height="43.5411" />
</clipPath>
<path style="stroke: none; stroke-width: 1; stroke-dasharray: none; stroke-linecap: butt; stroke-dashoffset: 0; stroke-linejoin: miter; stroke-miterlimit: 4; fill: rgb(35,31,32); fill-rule: nonzero; opacity: 1;" vector-effect="non-scaling-stroke"  transform=" translate(-104.63, -41.17)" d="M 158.263 41.8128 C 158.263 41.2601 158.107 40.7912 157.795 40.4005 C 157.767 40.3614 157.739 40.367 157.705 40.4061 L 157.326 40.9587 C 157.499 41.1541 157.627 41.3606 157.7 41.5727 C 157.599 41.6007 157.432 41.6174 157.192 41.6174 C 157.091 41.6174 156.941 41.6118 156.74 41.6006 C 156.539 41.5895 156.388 41.5839 156.287 41.5839 L 143.046 41.5839 L 138.257 41.5839 C 138.251 41.2657 138.145 40.9754 137.933 40.7075 C 137.749 40.4786 137.593 40.367 137.459 40.367 C 137.252 40.367 137.062 40.54 136.889 40.8917 C 136.739 41.1932 136.66 41.4555 136.66 41.6788 C 136.66 42.0528 137.051 42.2649 137.827 42.3096 C 137.715 42.5608 137.531 42.7617 137.28 42.9125 C 137.029 43.0632 136.755 43.1413 136.459 43.1413 C 136.158 43.1413 135.896 43.0799 135.672 42.946 C 135.622 42.918 135.583 42.9013 135.555 42.9013 C 135.533 42.9013 135.522 42.9125 135.522 42.9292 C 135.522 42.9515 135.538 42.985 135.572 43.0241 C 135.734 43.2251 135.912 43.3925 136.119 43.5377 C 136.37 43.7107 136.605 43.7944 136.828 43.7944 C 137.219 43.7944 137.559 43.5823 137.849 43.1637 C 138.05 42.879 138.173 42.5831 138.223 42.2817 L 142.354 42.2817 L 143.041 42.2817 L 156.299 42.2817 C 156.399 42.2817 156.544 42.2873 156.745 42.304 C 156.946 42.3208 157.091 42.3263 157.192 42.3263 C 157.845 42.3263 158.191 42.2761 158.236 42.1812 C 158.258 42.1589 158.263 42.0361 158.263 41.8128 Z M 137.799 41.6006 C 137.503 41.6006 137.252 41.5392 137.04 41.4109 C 137.124 41.2211 137.219 41.1262 137.319 41.1262 C 137.397 41.1262 137.492 41.1876 137.598 41.316 C 137.682 41.4053 137.749 41.5002 137.799 41.6006 Z M 134.305 41.623 C 134.305 41.5895 134.305 41.5504 134.305 41.5002 C 134.305 41.048 134.249 40.7298 134.137 40.5568 L 133.691 41.0313 C 133.802 41.2155 133.858 41.3941 133.869 41.5783 C 133.819 41.6174 133.719 41.6341 133.568 41.6341 C 133.3 41.6341 133.093 41.5839 132.943 41.4778 C 133.038 41.2769 133.088 41.0815 133.088 40.8973 C 133.088 40.8024 133.071 40.7242 133.043 40.6573 L 132.563 41.1373 C 132.597 41.2043 132.613 41.2657 132.613 41.3327 C 132.613 41.3997 132.597 41.4667 132.563 41.5337 C 132.457 41.5672 132.239 41.5839 131.91 41.5839 C 131.542 41.5839 131.302 41.5672 131.179 41.5337 C 131.274 41.3104 131.318 41.1094 131.318 40.9252 C 131.318 40.8191 131.301 40.7242 131.268 40.6293 L 130.805 41.1038 C 130.833 41.1876 130.849 41.2713 130.849 41.3495 C 130.849 41.4053 130.838 41.4667 130.821 41.5169 C 130.738 41.5616 130.565 41.5839 130.286 41.5839 L 116.81 41.5839 L 111.468 41.5839 C 111.323 41.5783 111.222 41.556 111.189 41.5002 C 111.161 41.3774 111.144 41.2769 111.139 41.1932 L 111.055 39.0998 C 111.055 39.0552 111.044 39.0273 111.027 39.0273 C 110.999 39.044 110.977 39.0552 110.96 39.0663 L 110.497 39.4627 L 110.659 41.623 C 110.675 41.8239 110.714 41.9747 110.776 42.0751 C 110.865 42.2091 111.005 42.2817 111.206 42.2817 L 111.468 42.2817 L 111.641 42.2817 L 115.638 42.2817 L 116.816 42.2817 L 130.157 42.2817 C 130.436 42.2817 130.654 42.237 130.816 42.1421 C 130.994 42.237 131.335 42.2817 131.837 42.2817 C 132.072 42.2817 132.256 42.2593 132.384 42.2203 C 132.491 42.1868 132.591 42.1254 132.691 42.0416 C 132.803 42.103 132.965 42.1533 133.166 42.2035 C 133.395 42.2593 133.613 42.2873 133.808 42.2873 C 134.121 42.2873 134.277 42.237 134.282 42.1365 L 134.305 41.623 Z M 133.746 40.2833 L 134.031 39.8758 L 133.434 39.5687 L 133.216 39.8813 L 132.658 39.5911 L 132.368 39.993 L 133.01 40.3167 L 133.233 40.0097 L 133.746 40.2833 Z M 133.121 39.6525 L 133.389 39.2394 L 132.825 38.9435 L 132.546 39.3343 L 133.121 39.6525 Z M 108.18 42.1868 C 108.275 42.1086 108.314 41.8965 108.292 41.556 C 108.286 41.4276 108.068 41.2155 107.633 40.914 C 107.287 40.674 106.997 40.501 106.768 40.3949 C 106.952 40.3112 107.17 40.2218 107.426 40.1437 C 107.527 40.1102 107.75 40.0432 108.108 39.9372 C 108.208 39.6413 108.247 39.485 108.236 39.4738 C 108.23 39.4683 108.202 39.4683 108.152 39.4794 C 107.867 39.5408 107.488 39.6636 107.008 39.8534 C 106.505 40.0488 106.215 40.1939 106.131 40.2888 C 106.115 40.3056 106.098 40.3558 106.081 40.434 C 106.07 40.4842 106.064 40.5233 106.064 40.5512 C 106.064 40.5679 106.064 40.5791 106.07 40.5847 C 106.109 40.6684 106.232 40.7912 106.444 40.9419 L 106.528 40.8415 C 106.924 41.0536 107.304 41.3104 107.661 41.6174 C 107.287 41.6844 106.678 41.7179 105.836 41.7179 C 105.489 41.7179 105.277 41.7123 105.205 41.7011 C 104.954 41.6565 104.831 41.5392 104.831 41.3439 C 104.831 41.3215 104.831 41.2657 104.842 41.1932 C 104.847 41.1094 104.836 41.0703 104.803 41.0703 C 104.775 41.0703 104.741 41.0983 104.714 41.1597 C 104.619 41.3439 104.568 41.5225 104.568 41.7011 C 104.568 42.1756 104.987 42.4101 105.819 42.4101 C 106.265 42.4101 106.751 42.3877 107.27 42.3375 C 107.817 42.2928 108.119 42.2426 108.18 42.1868 Z M 102.894 38.296 C 102.899 38.2792 102.905 38.2681 102.905 38.2569 C 102.905 38.2402 102.899 38.229 102.883 38.229 C 102.866 38.229 102.855 38.2402 102.843 38.2513 C 102.76 38.3462 102.631 38.3909 102.458 38.3909 C 102.375 38.3909 102.246 38.3686 102.084 38.3295 C 101.922 38.2904 101.794 38.2681 101.71 38.2681 C 101.571 38.2681 101.459 38.3183 101.37 38.4188 C 101.308 38.4858 101.269 38.5584 101.253 38.6309 C 101.247 38.6588 101.247 38.6812 101.264 38.6923 C 101.28 38.6979 101.297 38.6923 101.32 38.6756 C 101.426 38.5863 101.515 38.5416 101.599 38.5416 C 101.705 38.5416 101.855 38.5639 102.062 38.603 C 102.263 38.6421 102.419 38.6644 102.525 38.6644 C 102.676 38.6644 102.804 38.5416 102.894 38.296 Z M 99.5667 42.1533 C 99.6672 42.0081 99.7175 41.7179 99.7175 41.2713 C 99.7175 40.8861 99.6226 40.5512 99.4384 40.2665 C 99.2709 40.0153 99.1034 39.8925 98.9248 39.8925 C 98.7852 39.8925 98.601 40.0321 98.3777 40.3167 C 98.16 40.5903 98.0484 40.7912 98.0484 40.9252 C 98.0484 41.0648 98.1489 41.1987 98.3554 41.3215 C 98.5005 41.4109 98.7406 41.5169 99.0811 41.6397 C 98.9192 41.6397 98.6736 41.6286 98.3442 41.6118 C 98.0819 41.6007 88.5308 41.5895 84.6232 41.5895 L 84.6232 41.5839 L 79.7667 41.5839 C 79.6216 41.5783 79.5211 41.556 79.4876 41.5002 C 79.4597 41.3774 79.4429 41.2769 79.4374 41.1932 L 79.3536 39.0998 C 79.3536 39.0552 79.3425 39.0273 79.3257 39.0273 C 79.2978 39.044 79.2755 39.0552 79.2587 39.0663 L 78.7954 39.4627 L 78.9573 41.623 C 78.974 41.8239 79.0131 41.9747 79.0745 42.0751 C 79.1582 42.2091 79.3034 42.2817 79.5043 42.2817 L 79.7667 42.2817 L 79.9398 42.2817 L 84.6288 42.2817 L 97.8028 42.2817 C 97.9033 42.2817 98.054 42.2873 98.2549 42.2984 C 98.4559 42.3096 98.6066 42.3152 98.7071 42.3152 C 99.1983 42.3152 99.4886 42.2593 99.5667 42.1533 Z M 99.3825 41.1652 C 98.936 40.981 98.5899 40.8191 98.3554 40.6796 C 98.5173 40.4619 98.6792 40.3558 98.8355 40.3558 C 98.936 40.3558 99.042 40.4507 99.1592 40.6405 C 99.243 40.7912 99.3211 40.9643 99.3825 41.1652 Z M 99.3825 39.7529 L 99.6616 39.3845 L 99.0867 39.0552 L 98.8131 39.4292 L 99.3825 39.7529 Z M 98.534 39.7864 L 98.8131 39.418 L 98.2438 39.0942 L 97.9702 39.4627 L 98.534 39.7864 Z M 76.7747 42.1812 C 76.7858 42.1589 76.7914 42.0361 76.7914 41.8184 C 76.7914 41.2657 76.6351 40.7968 76.3225 40.4061 C 76.2946 40.367 76.2611 40.3726 76.2332 40.4116 L 75.8536 40.9643 C 76.0266 41.1597 76.155 41.3662 76.2276 41.5783 C 76.1271 41.6062 75.9597 41.623 75.7196 41.623 C 75.6191 41.623 75.4684 41.6174 75.2675 41.6062 C 75.0665 41.5951 74.9158 41.5895 74.8153 41.5895 L 61.5744 41.5895 L 61.5744 41.5839 L 56.7234 41.5839 C 56.5783 41.5783 56.4778 41.556 56.4387 41.5002 C 56.4108 41.3774 56.3941 41.2769 56.3885 41.1932 L 56.3048 39.0998 C 56.3048 39.0552 56.2936 39.0273 56.2768 39.0273 C 56.2489 39.044 56.2266 39.0552 56.2099 39.0663 L 55.7465 39.4627 L 55.9028 41.623 C 55.9196 41.8239 55.9587 41.9747 56.0201 42.0751 C 56.1038 42.2091 56.2489 42.2817 56.4499 42.2817 L 56.7123 42.2817 L 56.8853 42.2817 L 59.9109 42.2817 L 61.5744 42.2817 L 74.8321 42.2817 C 74.9325 42.2817 75.0777 42.2873 75.2786 42.304 C 75.4796 42.3208 75.6247 42.3263 75.7252 42.3263 C 76.3839 42.3263 76.73 42.2761 76.7747 42.1812 Z M 53.5751 43.0799 C 53.7704 42.8622 53.8653 42.505 53.8653 42.0026 C 53.8653 41.5058 53.7481 41.115 53.5137 40.8359 C 53.4913 40.808 53.469 40.8136 53.4467 40.8415 L 53.0838 41.3997 C 53.3406 41.7011 53.4634 42.0807 53.4634 42.544 C 53.0057 42.8176 52.5089 42.9571 51.9786 42.9571 C 51.7441 42.9571 51.5599 42.8901 51.4259 42.7617 C 51.2975 42.6334 51.2305 42.4547 51.2305 42.2426 C 51.2305 41.9635 51.3366 41.6286 51.5543 41.2266 C 51.5711 41.1931 51.5766 41.1708 51.5766 41.1541 C 51.5766 41.1373 51.5655 41.1262 51.5487 41.1262 C 51.5208 41.1262 51.4985 41.1429 51.4706 41.1708 C 51.331 41.3383 51.2194 41.5448 51.1301 41.7904 C 51.0408 42.0361 50.9961 42.2649 50.9961 42.4715 C 50.9961 42.7952 51.0687 43.0576 51.2138 43.2641 C 51.3813 43.5098 51.638 43.6326 51.973 43.6326 C 52.1795 43.6326 52.4642 43.5767 52.8271 43.4595 C 53.2178 43.3311 53.4634 43.2083 53.5751 43.0799 Z M 52.6261 40.4061 L 52.8605 39.9037 L 52.2298 39.686 L 52.0065 40.1828 L 52.6261 40.4061 Z M 75.2507 43.0074 L 74.8823 43.4149 L 75.3512 43.7889 L 75.6582 43.4539 L 76.0713 43.7889 L 76.4565 43.3758 L 75.9708 43.0074 L 75.6805 43.3367 L 75.2507 43.0074 Z M 102.33 38.9547 L 101.855 39.485 C 101.861 39.7027 101.889 40.0655 101.934 40.5735 C 101.973 41.0424 101.995 41.4053 102.001 41.6676 C 102.001 41.7625 101.995 41.9412 101.984 42.2091 C 101.984 42.2649 101.989 42.2928 102.001 42.2928 C 102.012 42.2928 102.034 42.2761 102.068 42.2482 C 102.162 42.17 102.257 42.0584 102.358 41.9132 C 102.475 41.7458 102.536 41.6174 102.531 41.5337 L 102.403 38.9993 C 102.403 38.9491 102.391 38.9268 102.38 38.9268 C 102.363 38.9156 102.352 38.9268 102.33 38.9547 Z M 101.995 42.2928 C 101.989 42.2928 101.995 42.2873 101.995 42.2928 L 101.995 42.2928 Z M 156.628 42.7673 L 156.343 43.1748 L 156.941 43.4818 L 157.158 43.1692 L 157.722 43.4595 L 158.012 43.0576 L 157.37 42.7394 L 157.147 43.0464 L 156.628 42.7673 Z M 157.259 43.4037 L 156.991 43.8168 L 157.555 44.1126 L 157.834 43.7219 L 157.259 43.4037 Z" stroke-linecap="round" />
</g>
		<g transform="matrix(1 0 0 1 22.64 -3.9)" clip-path="url(#CLIPPATH_6)"  >
<clipPath id="CLIPPATH_6" >
	<rect transform="matrix(1 0 0 1 -22.64 3.9)" id="clip1_24_4230" clip-path="url(#undefined)" x="-81.5" y="-21.77055" rx="0" ry="0" width="163" height="43.5411" />
</clipPath>
<path style="stroke: none; stroke-width: 1; stroke-dasharray: none; stroke-linecap: butt; stroke-dashoffset: 0; stroke-linejoin: miter; stroke-miterlimit: 4; fill: rgb(35,31,32); fill-rule: nonzero; opacity: 1;" vector-effect="non-scaling-stroke"  transform=" translate(-104.64, -20.1)" d="M 158.264 19.579 L 157.488 7.49914 C 157.477 7.20886 157.432 7.15304 157.421 7.14746 C 157.421 7.15304 157.365 7.16979 157.215 7.33726 L 154.396 10.3628 C 154.412 10.7982 154.502 12.0877 154.613 13.7121 C 154.864 17.3908 155.205 22.4315 155.155 23.481 C 155.144 23.721 155.16 23.827 155.172 23.8717 C 155.222 23.8494 155.317 23.788 155.506 23.6261 C 156.053 23.1795 156.634 22.5376 157.237 21.717 C 157.94 20.7568 158.286 20.0367 158.264 19.579 Z M 152.101 27.221 C 152.045 23.0455 151.962 20.1484 151.856 18.6133 L 151.097 7.67777 C 151.074 7.29818 151.03 7.18654 151.013 7.15304 C 150.974 7.16979 150.862 7.23678 150.566 7.48239 L 147.881 9.75993 L 149.282 26.713 C 149.355 27.4387 146.971 29.119 143.136 29.119 C 141.791 29.119 140.686 28.7729 139.837 28.0863 C 138.95 27.3773 138.498 26.4004 138.498 25.1835 C 138.498 24.0057 138.693 22.8055 139.084 21.6277 C 139.184 21.3206 139.24 21.0639 139.24 20.8685 C 139.24 20.768 139.223 20.7122 139.201 20.7122 C 139.139 20.7122 138.939 20.7959 138.498 21.5663 C 137.359 23.5535 136.778 25.6636 136.778 27.8406 C 136.778 29.4092 137.359 30.6876 138.509 31.6421 C 139.631 32.5743 141.082 33.0488 142.829 33.0488 C 145.615 33.0488 147.993 32.2171 149.885 30.5815 C 151.37 29.3032 152.112 28.17 152.101 27.221 Z M 131.849 19.9809 C 131.86 19.7744 131.866 19.5343 131.866 19.2664 C 131.866 16.6707 131.559 14.823 130.95 13.7791 L 128.394 16.4697 C 129.036 17.5471 129.382 18.6468 129.432 19.7241 L 129.432 19.7688 L 129.399 19.7967 C 129.075 20.0479 128.466 20.1651 127.545 20.1651 C 125.949 20.1651 124.67 19.8469 123.755 19.2217 L 123.694 19.1827 L 123.727 19.1157 C 124.296 17.9267 124.581 16.7712 124.581 15.6882 C 124.581 15.1914 124.509 14.756 124.375 14.3987 L 121.65 17.1284 C 121.823 17.508 121.913 17.8932 121.913 18.2672 C 121.913 18.6747 121.801 19.0934 121.583 19.4953 L 121.567 19.5232 L 121.533 19.5343 C 121.17 19.6516 119.881 19.6906 118.887 19.6906 C 117.894 19.6906 116.587 19.6516 116.174 19.5343 L 116.079 19.5064 L 116.118 19.4171 C 116.677 18.1053 116.956 16.8996 116.956 15.8334 C 116.956 15.2751 116.878 14.7337 116.721 14.2257 L 114.109 16.933 C 114.276 17.4354 114.36 17.9155 114.36 18.3565 C 114.36 18.7193 114.304 19.0654 114.198 19.3836 L 114.187 19.4171 L 114.159 19.4339 C 113.662 19.713 112.596 19.8469 110.905 19.8469 C 110.905 19.8469 109.911 19.8414 108.555 19.8414 C 106.037 19.8414 101.7 19.8581 100.968 19.9642 C 99.6175 20.1651 98.395 20.5726 97.8536 21.0025 C 97.3847 21.3653 96.8599 22.1971 96.2906 23.4754 C 95.7658 24.6365 95.5035 25.3956 95.5035 25.7362 C 95.5035 26.0041 95.8551 26.4507 97.5298 27.087 C 99.1431 27.6788 100.259 28.0807 100.879 28.3096 L 101.074 28.3821 L 100.885 28.4659 C 99.6455 29.0352 97.4907 29.3255 94.4819 29.3255 C 92.8463 29.3255 91.395 29.0855 90.1836 28.611 C 88.5313 27.969 87.694 26.9698 87.694 25.6357 C 87.694 24.3294 88.3583 22.7441 89.6701 20.9243 C 89.804 20.7401 89.832 20.6396 89.832 20.5894 C 89.832 20.5559 89.832 20.5336 89.7594 20.5336 C 89.631 20.5336 89.4803 20.6285 89.3128 20.8127 C 87.3367 22.9227 86.3375 25.217 86.3375 27.6174 C 86.3375 29.3478 86.9348 30.7099 88.1071 31.67 C 89.2402 32.5855 90.7921 33.0488 92.7291 33.0488 C 94.6159 33.0488 96.6087 32.7641 98.6518 32.2003 C 101.102 31.5249 102.788 30.6206 103.653 29.5209 C 103.799 29.3311 103.949 28.8399 104.111 28.0639 C 104.262 27.3438 104.34 26.8135 104.34 26.4786 C 104.323 26.3502 103.743 25.8645 98.6853 24.1062 L 98.4676 24.028 L 98.6797 23.9443 C 99.238 23.7154 100.053 23.5982 101.091 23.5982 C 101.499 23.5982 108.594 23.7991 108.895 23.8047 L 110.095 23.8047 C 111.742 23.8047 113.054 23.5256 113.986 22.9841 L 114.025 22.9618 L 114.07 22.9841 C 114.745 23.3358 117.028 23.5479 118.843 23.5479 C 119.619 23.5479 120.188 23.5089 120.411 23.4363 C 121.031 23.2353 121.639 22.8837 122.214 22.3813 L 122.259 22.3422 L 122.309 22.3701 C 122.973 22.7162 123.922 23.0455 125.128 23.3414 C 126.49 23.6707 127.769 23.8382 128.935 23.8382 C 130.705 23.8382 131.659 23.5479 131.687 23.0065 L 131.849 19.9809 Z M 82.9714 19.8246 C 82.9714 19.445 82.5919 18.3398 81.8494 16.5535 C 81.3247 15.2919 81.0009 14.5494 80.8837 14.3485 C 80.3981 13.5056 79.8454 13.0757 79.2481 13.0757 C 77.8972 13.0757 76.6524 13.8628 75.5415 15.4147 C 75.3685 15.6547 74.7768 16.7488 73.7832 18.6635 C 73.4426 19.3166 72.8509 19.6962 72.0248 19.7967 L 67.492 19.7967 C 67.1515 18.5128 66.6156 17.4131 65.8788 16.5255 C 65.8509 16.4865 65.8062 16.4474 65.7671 16.4474 C 65.7281 16.4474 65.6778 16.492 65.6276 16.5646 L 63.4952 19.8302 C 64.9912 21.6388 65.7504 23.9331 65.7504 26.6516 L 65.7504 26.7019 L 65.7057 26.7298 C 62.9649 28.3654 59.9728 29.1971 56.8077 29.1971 C 55.3787 29.1971 54.2511 28.7952 53.4584 28.0025 C 52.6601 27.2099 52.2582 26.1437 52.2582 24.8318 C 52.2582 23.1795 52.9113 21.1197 54.1897 18.7138 C 54.3013 18.5072 54.3236 18.3956 54.3236 18.3398 C 54.3236 18.2728 54.3013 18.2504 54.2343 18.2504 C 54.1115 18.2504 53.9775 18.3342 53.8436 18.4905 C 53.0286 19.4841 52.3475 20.7178 51.8116 22.1691 C 51.2758 23.6149 51.0078 24.977 51.0078 26.2106 C 51.0078 28.1086 51.4376 29.6828 52.2806 30.8941 C 53.2686 32.3287 54.7702 33.0544 56.7407 33.0544 C 57.9744 33.0544 59.6714 32.7027 61.7926 32.0161 C 64.0701 31.2737 65.4824 30.5201 66.2193 29.7944 C 67.5478 28.4826 67.8884 25.8255 67.9386 23.7656 L 69.6356 23.7656 C 70.7464 23.7656 71.4945 23.6707 71.8629 23.4921 C 72.2257 23.3135 72.6723 22.7943 73.1803 21.9626 L 73.2361 21.8733 L 73.3143 21.9459 C 73.8948 22.5041 74.3916 22.8892 74.7935 23.0846 C 75.7034 23.5368 77.1604 23.7656 79.1141 23.7656 C 80.1078 23.7656 80.8111 23.6763 81.1963 23.5033 C 82.3741 22.9618 82.9714 21.7226 82.9714 19.8246 Z M 80.5209 20.2042 L 80.4092 20.1986 C 77.3111 19.9921 75.6253 19.5232 75.2569 18.7696 L 75.2345 18.7249 L 75.2624 18.6803 C 75.7369 18.016 76.1333 17.5527 76.4459 17.3126 C 76.8589 16.9944 77.3669 16.827 77.9642 16.827 C 79.2035 16.827 80.0575 17.9267 80.4985 20.087 L 80.5209 20.2042 Z M 60.5701 17.1787 L 61.8149 14.3652 L 58.2814 13.0981 L 57.0142 15.8892 L 60.5701 17.1787 Z" stroke-linecap="round" />
</g>
</g>
</g>
</svg>