<?xml version="1.0" encoding="UTF-8" standalone="no" ?>
<!DOCTYPE svg PUBLIC "-//W3C//DTD SVG 1.1//EN" "http://www.w3.org/Graphics/SVG/1.1/DTD/svg11.dtd">
<svg xmlns="http://www.w3.org/2000/svg" xmlns:xlink="http://www.w3.org/1999/xlink" version="1.1" width="1080" height="1080" viewBox="0 0 1080 1080" xml:space="preserve">
<desc>Created with Fabric.js 5.2.4</desc>
<defs>
</defs>
<g transform="matrix(1 0 0 1 540 540)" id="f0e6e0a0-12d0-466f-863d-9661c3e485fa"  >
</g>
<g transform="matrix(1 0 0 1 540 540)" id="7ef92746-7853-452a-a55c-766ee0fbd2a8"  >
<rect style="stroke: none; stroke-width: 1; stroke-dasharray: none; stroke-linecap: butt; stroke-dashoffset: 0; stroke-linejoin: miter; stroke-miterlimit: 4; fill: rgb(255,255,255); fill-rule: nonzero; opacity: 1; visibility: hidden;" vector-effect="non-scaling-stroke"  x="-540" y="-540" rx="0" ry="0" width="1080" height="1080" />
</g>
<g transform="matrix(8.5 0 0 8.5 877.25 540)"  >
<g style=""   >
		<g transform="matrix(1 0 0 1 -39.5 0.98)"  >
<path style="stroke: none; stroke-width: 1; stroke-dasharray: none; stroke-linecap: butt; stroke-dashoffset: 0; stroke-linejoin: miter; stroke-miterlimit: 4; fill: rgb(235,32,39); fill-rule: nonzero; opacity: 1;" vector-effect="non-scaling-stroke"  transform=" translate(-24, -22.98)" d="M 41.9247 6.67688 C 41.9247 6.67688 41.8745 6.61547 41.7852 6.58198 C 40.5627 6.20797 31.6702 3.56201 24.1845 3.56201 C 17.4859 3.56201 8.11339 6.03492 6.36059 6.51499 C 6.17079 6.56523 6.12613 6.6378 6.12613 6.6378 C 6.08148 6.71037 6.07031 6.74386 6.07031 6.81643 C 6.18196 30.4235 23.978 42.4029 23.978 42.4029 C 23.978 42.4029 41.9247 30.7752 41.9247 6.81643 L 41.9247 6.69362" stroke-linecap="round" />
</g>
		<g transform="matrix(1 0 0 1 -39.48 -1.59)"  >
<path style="stroke: none; stroke-width: 1; stroke-dasharray: none; stroke-linecap: butt; stroke-dashoffset: 0; stroke-linejoin: miter; stroke-miterlimit: 4; fill: rgb(255,255,255); fill-rule: nonzero; opacity: 1;" vector-effect="non-scaling-stroke"  transform=" translate(-24.01, -20.41)" d="M 33.7978 10.4561 C 30.482 9.12751 24.8719 18.6675 25.0338 23.9147 C 25.1845 28.7098 30.482 27.9562 32.3744 23.1611 C 32.7093 22.3071 33.9486 18.3884 31.3584 18.2767 C 31.057 18.2656 31.1575 18.4833 31.4757 18.5335 C 31.8385 18.5949 32.2404 19.008 32.2683 19.6276 C 32.4246 23.0997 27.3672 28.6987 26.7085 24.9084 C 26.2061 22.0335 30.0466 9.85878 33.5522 10.9641 C 35.0985 11.4497 33.262 14.2241 33.0219 14.5813 C 32.4916 15.3796 32.9661 15.9824 33.6695 15.1116 C 33.876 14.8548 35.7237 11.2264 33.7978 10.4561 Z M 27.4174 12.0917 C 27.4341 11.3548 27.0099 10.3947 26.1447 10.3947 C 23.9397 10.3947 21.8687 14.7655 20.3503 18.7345 C 19.3735 18.7568 17.7602 18.366 17.001 17.618 C 16.4093 17.0375 16.2698 17.2552 16.5545 17.618 C 17.3136 18.5893 19.072 19.0694 20.194 19.0694 L 20.222 19.0694 C 19.1502 21.9219 18.4022 24.4785 18.0951 24.9809 C 15.438 23.4403 13.3224 24.2162 13.3559 25.9522 C 13.3838 27.6436 16.1023 28.1237 17.9444 26.5439 C 24.8384 30.8422 29.7787 32.8239 32.6479 26.2034 C 32.8545 25.7122 33.0387 24.7632 32.3576 25.8015 C 30.0801 29.2513 26.3791 29.9937 19.1223 25.4443 C 20.6574 23.7194 21.5896 21.146 22.4269 18.6842 C 25.112 17.5399 27.3393 14.9832 27.4174 12.0917 Z M 17.2801 26.142 C 16.3591 27.2138 13.741 27.158 13.8303 25.9187 C 13.9252 24.6069 16.0967 25.3103 17.2801 26.142 Z M 26.6973 11.405 C 26.7364 12.6275 25.1287 16.0215 22.6502 18.0311 C 23.1917 16.362 24.6654 10.7854 26.1726 10.7854 C 26.3791 10.7854 26.6806 10.9417 26.6973 11.405 Z" stroke-linecap="round" />
</g>
</g>
</g>
</svg>